<svg xmlns="http://www.w3.org/2000/svg" width="590.918" height="482.735" viewBox="0 0 590.918 482.735">
  <g id="Group_20" data-name="Group 20" transform="translate(-0.001 -0.022)" opacity="0.83">
    <path id="Path_504" data-name="Path 504" d="M685.1,328.364v1.094q-.1,9.487-1.124,18.926a.687.687,0,0,1,0,.114c-.054.523-.114,1.04-.174,1.563-.1.884-.21,1.762-.331,2.645a190.273,190.273,0,0,1-6.932,31.737h0a171.152,171.152,0,0,1-18.1,39.848q-3.559,5.711-7.581,11.056h0c-1.431,1.888-2.892,3.733-4.4,5.549q-1.587,1.906-3.234,3.751l-.685.758A178.373,178.373,0,0,1,623.9,463.118,292.5,292.5,0,0,1,589.59,487.13c-.673.415-1.353.824-2.032,1.2a.987.987,0,0,1-.15.09,361.83,361.83,0,0,1-49.96,25.533c-18.818,7.713-38.248,13.323-58.184,15.776-27.788,3.415-55.912.637-83.531-4.136A542.817,542.817,0,0,1,327.8,509.362l-3.667-1.148q-2.85-.908-5.693-1.852-17.176-5.681-33.968-12.625A446.491,446.491,0,0,1,204.31,450.7q-4.81-3.234-9.481-6.613-6.529-4.7-12.9-9.679l-2.621-2.032a269.492,269.492,0,0,1-31.154-28.611c-12.938-14.08-23.994-29.964-31.262-48.1q-1.719-4.275-3.15-8.711l-.09-.295c-.481-1.5-.926-3.006-1.335-4.569q-.9-3.355-1.581-6.794c-.1-.439-.18-.878-.259-1.323a113.753,113.753,0,0,1-1.894-23.4,108.217,108.217,0,0,1,2.4-20.441h0a92.211,92.211,0,0,1,6.812-20.182h0a72.745,72.745,0,0,1,10.419-16.07h0a61.463,61.463,0,0,1,9.818-9.174,80.191,80.191,0,0,1,21.253-10.918h0c3.523-1.263,7.094-2.369,10.683-3.4,2.543-.733,5.1-1.431,7.641-2.116l7.5-2.026c4.81-1.311,9.619-2.657,14.357-4.112,12.914-3.944,25.569-8.717,37.274-15.836,1.852-1.124,3.74-2.357,5.627-3.679q3.607-2.507,7.118-5.447h0c2.369-1.984,4.689-4.106,6.9-6.355.343-.349.679-.7,1.016-1.052,1.8-1.9,3.553-3.89,5.176-5.958.794-1.01,1.563-2.038,2.3-3.084,1.016-1.449,1.978-2.922,2.868-4.437h0c4.461-7.575,7.214-15.932,6.89-24.739a38.078,38.078,0,0,0-.391-4.335c-.782-5.309-1.533-10.491-2.086-15.559-2.321-20.964-1.341-39.974,14.393-57.836,19.563-22.2,50.267-26.729,78.216-24.956,80.808,5.11,154.371,51.246,219.018,106.172q8.387,7.118,16.569,14.429,2.062,1.84,4.13,3.7c10.22,9.2,20.285,18.752,29.657,28.978.758.83,1.515,1.659,2.26,2.495.457.517.92,1.028,1.371,1.551q4.383,4.96,8.507,10.16a192.482,192.482,0,0,1,19.431,29.459,167.237,167.237,0,0,1,17.062,52.106h0a185.691,185.691,0,0,1,2.062,19.942c.1,1.966.168,3.938.2,5.9v1.888C685.1,326.561,685.1,327.45,685.1,328.364Z" transform="translate(-108.55 -48.49)" fill="#6c63ff" opacity="0.1"/>
    <path id="Path_505" data-name="Path 505" d="M387.6,447.145,377.98,618.361l9.619.126,7.816-173.747Z" transform="translate(-150.737 -177.353)" fill="#3f3d56"/>
    <rect id="Rectangle_398" data-name="Rectangle 398" width="119.038" height="25.852" transform="translate(82.353 356.54)" fill="#6c63ff"/>
    <path id="Path_506" data-name="Path 506" d="M366.406,679.51v16.232H243.442q-6.529-4.7-12.9-9.679V679.51Z" transform="translate(-157.199 -300.131)" fill="#3f3d56"/>
    <path id="Path_507" data-name="Path 507" d="M368.578,572.044c-.337,1.557-.776,3.1-1.238,4.629-1.365,4.431-3.006,8.8-3.325,13.407-.427,6.084,1.2,13.16-3.006,17.579-1.082,1.142-2.495,2-3.463,3.216a5.619,5.619,0,0,0-.409.6,9.318,9.318,0,0,0-.98,4.81,84.16,84.16,0,0,0,.679,10.431c1.425,11.9,4.238,23.832.541,35.068a54.025,54.025,0,0,1-2.339,5.717c-1.8,3.968-3.77,7.882-4.359,12.181a76.739,76.739,0,0,0-.325,9.709q-2.85-.908-5.693-1.852-17.176-5.681-33.968-12.625c.03-.162.06-.331.084-.493.86-5.351-.319-10.822-1.749-16.04-3.006-11.056-7.263-22-9.782-33.138a83.854,83.854,0,0,1-1.99-13.226c-.072-1-.114-2-.12-3.006-.03-1.311,0-2.621.054-3.944.126-2.639.241-5.772-1.87-7.377-1.16-.872-2.693-1.022-4.046-1.551-2.609-1.016-4.395-3.373-6.463-5.26a8.47,8.47,0,0,0-7.569-2.224c-13.515,3.1-23.447,14.561-36.024,20.357-.487.229-.974.445-1.467.649a21.368,21.368,0,0,0-4.611,2.357,5.254,5.254,0,0,0-2.068,2.916,10.909,10.909,0,0,0,.114,3.92,20.014,20.014,0,0,1-.271,6.391,19.513,19.513,0,0,1-.643,2.4c-.481,1.425-1.124,2.819-1.737,4.208q-4.81-3.234-9.481-6.613-6.529-4.7-12.9-9.679l-2.579-2.074A269.508,269.508,0,0,1,174.42,584.88c1.281-3.607,3.132-6.962,4.022-10.659.5-2.122.691-4.329,1.389-6.391a22.978,22.978,0,0,1,3.319-5.952,80.565,80.565,0,0,1,18.481-18.493c7.449-5.339,16.052-9.619,22.755-15.679a35.908,35.908,0,0,0,6.956-8.242,5.148,5.148,0,0,0,.319-.6,12.476,12.476,0,0,0,1.076-3.439c.481-2.693.409-5.651.649-8.237a87.853,87.853,0,0,0,24.727.746c9.589-1.076,18.968-3.739,28.557-4.774.721-.084,1.449-.15,2.176-.21,3.072-.246,6.15-.3,9.234-.265,2.579,0,5.158.114,7.737.2l28.395.962c3.144.108,6.355.229,9.283,1.377a20.289,20.289,0,0,1,8.489,7.07c.283.385.565.77.83,1.166a36.674,36.674,0,0,1,4.377,8.651c.114.313.222.6.325.944.271.836.505,1.677.715,2.531.162.667.307,1.335.439,2.008a86.234,86.234,0,0,0,2.1,9.95c.072.234.15.469.235.7,1.257,3.523,3.343,6.679,4.918,10.064a37.387,37.387,0,0,1,2.585,7.653A37.822,37.822,0,0,1,368.578,572.044Z" transform="translate(-134.818 -229.609)" fill="#35323e"/>
    <path id="Path_508" data-name="Path 508" d="M302.527,259.531c-2.537-2.02-6.216-.541-9.186.764a58.984,58.984,0,0,1-7.671,2.772,3.241,3.241,0,0,1-1.683.174c-1.2-.289-1.707-1.713-2.6-2.579-1.557-1.5-4.106-1.142-6.114-.331s-3.992,1.984-6.144,1.8c-2.3-.18-4.293-1.876-6.613-1.93-4.088-.1-7.521,4.942-11.387,3.607-2.357-.812-4.208-3.878-6.529-3.006-1.8.685-1.966,3.18-3.054,4.81-1.281,1.9-3.776,2.435-5.91,3.277a16.978,16.978,0,0,0-10.3,17.333c.487,3.962,2.4,7.593,3.673,11.375,3.764,11,2.471,23.4,7.214,34,.6-.565.938-.776,1.521-1.335a13.912,13.912,0,0,0-.812,9.98c.5,1.665,1.311,3.216,1.924,4.846a43.433,43.433,0,0,1,1.539,5.591l5.23,23.074c2.044,9.018,4.094,18.036,4.449,27.271a79.587,79.587,0,0,1-1.371,17.916c9.475-1.569,18.144-5.771,27.745-5.717a77.359,77.359,0,0,1,10.509,1.082,216.34,216.34,0,0,0,30.74,2.086,12.206,12.206,0,0,0,4.713-.661,35.34,35.34,0,0,0,3.655-2.3,16.169,16.169,0,0,1,8.23-1.8c12.86-.234,25.251,4.473,38.026,6.132,5.044-10.587,5.345-23.272,1.473-34.341-1.148-3.289-2.693-6.493-3.15-9.95a50.345,50.345,0,0,1-.144-6.391,46.357,46.357,0,0,0-2.9-15.98c-.745-2-1.641-4.04-1.563-6.174a14.029,14.029,0,0,1,2.164-6.012c2.1-3.848,4.208-7.731,7.172-10.978,3.036-3.355,6.836-5.91,10.593-8.417l9.277-6.228c-1.268-8.014-2.9-16.455-6.3-23.826s-8.477-14.146-15.349-18.457a50.719,50.719,0,0,0-7.251-3.607,33.69,33.69,0,0,0-10.972-3.006c-4.329-.246-8.591.914-12.866,1.635C329.04,268.3,313.2,268.026,302.527,259.531Z" transform="translate(-155.076 -132.248)" fill="#19bd97"/>
    <path id="Path_509" data-name="Path 509" d="M358.728,489.723l-4.413,5.573-8.321,10.5-9.619,12.138-2.687,3.391h-5.212l-129.072.15-80.832.09h-3.607c-.481-1.5-.926-3.006-1.335-4.569q-.9-3.355-1.581-6.794c-.1-.439-.18-.878-.259-1.323l29.327-19.172,11.026-.06h0l33.727-.192h0l18.836-.108h5.6l12.553-.066h0l95.675-.547h0l4.894-.03h2.122l5.621-.03,20.916-.12,4.016-1.527.295.313Z" transform="translate(-109.842 -223.37)" fill="#3f3d56"/>
    <path id="Path_510" data-name="Path 510" d="M355.633,469.374l-.5.6-3.283,3.866-6.758,7.978-14.17,16.707-125.531-3.2-94.659-2.4c-.1-.439-.18-.878-.259-1.323a113.754,113.754,0,0,1-1.894-23.4l10.5-5.375,2.4-1.238,18.715-9.619,16.425-8.417,42.842,5.567,9.487,1.232,4.293.553,6.283.818.529.072,98.519,12.776,10.888,1.413,6.391.83,19.7,2.561Z" transform="translate(-108.55 -206.026)" fill="#504f60"/>
    <path id="Path_511" data-name="Path 511" d="M474.384,534.51l-.1,2.363-.6,13.341-3.234,73.347-.685,15.854-1.8,40.786-1.016,23.038-3.667-1.148q-2.85-.908-5.693-1.852l8.8-159.92.186-3.355,3.872-1.2Z" transform="translate(-247.742 -242.305)" fill="#3f3d56"/>
    <path id="Path_512" data-name="Path 512" d="M120.052,534.22l-.271,6.174-.4,9.018q-1.719-4.275-3.15-8.711l-.09-.295c-.481-1.5-.926-3.006-1.335-4.569Z" transform="translate(-111.046 -242.189)" fill="#3f3d56"/>
    <ellipse id="Ellipse_61" data-name="Ellipse 61" cx="27.655" cy="37.275" rx="27.655" ry="37.275" transform="translate(138.566 126.58)" fill="#a1616a"/>
    <ellipse id="Ellipse_62" data-name="Ellipse 62" cx="27.655" cy="37.275" rx="27.655" ry="37.275" transform="translate(138.566 126.58)" opacity="0.1"/>
    <circle id="Ellipse_63" data-name="Ellipse 63" cx="38.477" cy="38.477" r="38.477" transform="translate(131.652 102.832)" fill="#a1616a"/>
    <path id="Path_513" data-name="Path 513" d="M364.587,184.312a49.261,49.261,0,0,0-6.98,1.064c-6.084,1.479-11.345,4.762-16.467,7.984-2.3,1.449-4.659,2.958-6.084,5.086-2.561,3.818-1.569,8.675-3.006,12.914a37.2,37.2,0,0,1-3.277,6.156c-3.192,5.555-4.864,11.657-6.505,17.7-.337,1.25-.433,2.946.932,3.427a3.757,3.757,0,0,0,2.333-.265c4.311-1.425,9.788-1.834,12.986,1.058s2.928,8.02,6.733,10.22c4.359,2.543,11.164-.529,15.12,2.471,1.7,1.287,2.309,3.349,3.7,4.9,3.234,3.607,9.457,3.433,14.633,2.705,2.97-.421,6.613-.7,8.417,1.383.866.986,1.112,2.339,2.116,3.228,1.8,1.611,5.1.794,6.866-.86s2.6-3.89,4.07-5.747c2.856-3.607,7.876-5.573,10.822-9.138,2.465-3.006,3.21-6.77,3.884-10.4l2.507-13.461c1.016-5.459,1.942-11.423-1.13-16.232-1.094-1.731-2.663-3.222-3.607-5.014-.631-1.2-.986-2.471-1.719-3.607a14.976,14.976,0,0,0-3.084-3.114l-5.934-4.912a49.9,49.9,0,0,0-6.487-4.81C386.952,182.112,374.266,183.41,364.587,184.312Z" transform="translate(-193.695 -102.305)" fill="#464353"/>
    <path id="Path_514" data-name="Path 514" d="M154.32,344.965c-1.425,1.515-2.741,3.15-4.269,4.569a51.7,51.7,0,0,1-4.208,3.367q-3.535,2.645-6.914,5.477a38.727,38.727,0,0,0-6.337,6.331c-3.21,4.311-4.731,9.673-7.737,14.128-2.657,3.95-6.4,7.07-9.1,10.99a17,17,0,0,0-2.6,5.453,25.337,25.337,0,0,0-.535,5.766,42.819,42.819,0,0,0,.547,9.493,14.4,14.4,0,0,0,4.515,8.2c2.267,1.894,5.194,2.766,8.062,3.487a7.258,7.258,0,0,0,4.485.126,7.4,7.4,0,0,0,2.609-2.2l7.317-8.417c4.894-5.651,9.98-11.423,16.7-14.729,2.1-1.028,4.323-1.8,6.433-2.8,8.946-4.311,15.271-13.136,17.723-22.755.6-2.351.986-4.75,1.377-7.148l1.058-6.577a2.1,2.1,0,0,0,0-1,2.164,2.164,0,0,0-.77-.914A127.522,127.522,0,0,1,168.4,342.337a32.945,32.945,0,0,0-3.234-3.7c-1.515-1.2-1.4-1.112-3.222,0A38.639,38.639,0,0,0,154.32,344.965Z" transform="translate(-110.161 -163.844)" fill="#a1616a"/>
    <path id="Path_515" data-name="Path 515" d="M263.5,422.09a1.13,1.13,0,1,0-2.032.986l-.6.295L278.8,460.116l3.241-1.581-17.928-36.77Z" transform="translate(-169.294 -197.201)" fill="#3f3d56"/>
    <path id="Path_516" data-name="Path 516" d="M154.32,344.965c-1.425,1.515-2.741,3.15-4.269,4.569a51.7,51.7,0,0,1-4.208,3.367q-3.535,2.645-6.914,5.477a38.727,38.727,0,0,0-6.337,6.331c-3.21,4.311-4.731,9.673-7.737,14.128-2.657,3.95-6.4,7.07-9.1,10.99a17,17,0,0,0-2.6,5.453,25.337,25.337,0,0,0-.535,5.766,42.819,42.819,0,0,0,.547,9.493,14.4,14.4,0,0,0,4.515,8.2c2.267,1.894,5.194,2.766,8.062,3.487a7.258,7.258,0,0,0,4.485.126,7.4,7.4,0,0,0,2.609-2.2l7.317-8.417c4.894-5.651,9.98-11.423,16.7-14.729,2.1-1.028,4.323-1.8,6.433-2.8,8.946-4.311,15.271-13.136,17.723-22.755.6-2.351.986-4.75,1.377-7.148l1.058-6.577a2.1,2.1,0,0,0,0-1,2.164,2.164,0,0,0-.77-.914A127.522,127.522,0,0,1,168.4,342.337a32.945,32.945,0,0,0-3.234-3.7c-1.515-1.2-1.4-1.112-3.222,0A38.639,38.639,0,0,0,154.32,344.965Z" transform="translate(-110.161 -163.844)" opacity="0.04"/>
    <path id="Path_517" data-name="Path 517" d="M497.123,426.067c-.06,3.836-.21,7.786-1.8,11.285a6.01,6.01,0,0,1-3.343,3.5,7.779,7.779,0,0,1-2.94.108,106.215,106.215,0,0,0-35.164,2.79c3.066-6.132,1.3-13.485,2.152-20.291.234-1.858.661-3.685.824-5.549.6-6.613-2.23-13.034-3.529-19.563a43.767,43.767,0,0,1,0-17.122,11.422,11.422,0,0,1,1.473-4.118,9.668,9.668,0,0,1,3.379-2.94c4.87-2.771,10.611-3.09,16.082-2.723,3.685.246,11.074-.1,14.146,2.164,3.361,2.483,4.425,10.822,5.333,14.675a124.136,124.136,0,0,1,2.766,17.958A192.982,192.982,0,0,1,497.123,426.067Z" transform="translate(-245.705 -177.227)" fill="#a1616a"/>
    <path id="Path_518" data-name="Path 518" d="M59.98,436.03l21.643,14.429,97.395-3.607L114.689,436.03Z" transform="translate(-23.919 -173.879)" fill="#fff"/>
    <path id="Path_519" data-name="Path 519" d="M199.4,289.874c-3.553,3.132-6.565,6.824-9.932,10.16a136.654,136.654,0,0,1-15.09,12.355,11.23,11.23,0,0,1,7.816,7.876c.228.884.343,1.8.6,2.669a14.585,14.585,0,0,0,3.343,5.411c6.1,6.872,14.627,11.958,18.222,20.441a1.888,1.888,0,0,0,.721,1.022,1.581,1.581,0,0,0,.932.108c3.253-.343,5.741-2.964,7.816-5.513a57.631,57.631,0,0,0,10.22-17.988,32.063,32.063,0,0,0,.15-20.441,52.322,52.322,0,0,0-4.731-9.216q-2.339-3.89-4.665-7.768c-.812-1.365-1.846-4.136-3.439-4.81C207.927,282.7,201.608,287.667,199.4,289.874Z" transform="translate(-134.802 -142.366)" fill="#19bd97"/>
    <path id="Path_520" data-name="Path 520" d="M483.844,350.388l5.116,12.024a37.172,37.172,0,0,0-33.607,4.659c-2.916,2.086-5.591,4.707-6.908,8.038a3.511,3.511,0,0,1-3.481-1.365,6.979,6.979,0,0,1-1.287-3.679c-.475-4.617,1.275-9.144,3.006-13.461a19.386,19.386,0,0,1,3.066-5.723,17.912,17.912,0,0,1,5.23-3.745,116.48,116.48,0,0,1,18.968-8.381c2.766-.9,5.663-.878,7.214,1.707C482.96,343.546,482.437,347.106,483.844,350.388Z" transform="translate(-242.166 -164.025)" fill="#19bd97"/>
    <path id="Path_521" data-name="Path 521" d="M149.521,415.743c1.281,1.022,2.4,2.23,3.721,3.2a26.575,26.575,0,0,0,4.425,2.483l5.928,2.85a33.212,33.212,0,0,0,5.742,2.333c2.537.679,5.2.745,7.749,1.377,3.216.794,6.156,2.447,9.325,3.4s6.878,1.112,9.523-.878c1.653-1.245,2.9-3.3,4.954-3.607a6.556,6.556,0,0,1,3.776,1.082l15.427,8.11c2.08,1.094,4.281,2.309,5.369,4.395s.355,5.255-1.936,5.8a21.122,21.122,0,0,1-2.4.138,1.885,1.885,0,0,0-1.768,1.365,2.742,2.742,0,0,0,.379,1.413,5.911,5.911,0,0,1,.09,5.026,3.594,3.594,0,0,1-4.365,1.8c.271,2.327-2.261,3.956-4.515,4.575-5.687,1.557-11.717.6-17.531-.385a24.033,24.033,0,0,1-6.685-1.8c-1-.487-1.924-1.112-2.934-1.563-2.772-1.232-5.922-1.07-8.952-1.016-14.014.247-27.908-2.351-41.687-4.936a20.164,20.164,0,0,1-7.365-2.4c-4.208-2.741-5.772-8.369-5.08-13.347s3.216-9.487,5.7-13.864l3.216-5.669a7.3,7.3,0,0,1,1.731-2.285C136.084,409.725,145.469,412.484,149.521,415.743Z" transform="translate(-113.334 -193.301)" fill="#a1616a"/>
    <path id="Path_522" data-name="Path 522" d="M149.521,415.743c1.281,1.022,2.4,2.23,3.721,3.2a26.575,26.575,0,0,0,4.425,2.483l5.928,2.85a33.212,33.212,0,0,0,5.742,2.333c2.537.679,5.2.745,7.749,1.377,3.216.794,6.156,2.447,9.325,3.4s6.878,1.112,9.523-.878c1.653-1.245,2.9-3.3,4.954-3.607a6.556,6.556,0,0,1,3.776,1.082l15.427,8.11c2.08,1.094,4.281,2.309,5.369,4.395s.355,5.255-1.936,5.8a21.122,21.122,0,0,1-2.4.138,1.885,1.885,0,0,0-1.768,1.365,2.742,2.742,0,0,0,.379,1.413,5.911,5.911,0,0,1,.09,5.026,3.594,3.594,0,0,1-4.365,1.8c.271,2.327-2.261,3.956-4.515,4.575-5.687,1.557-11.717.6-17.531-.385a24.033,24.033,0,0,1-6.685-1.8c-1-.487-1.924-1.112-2.934-1.563-2.772-1.232-5.922-1.07-8.952-1.016-14.014.247-27.908-2.351-41.687-4.936a20.164,20.164,0,0,1-7.365-2.4c-4.208-2.741-5.772-8.369-5.08-13.347s3.216-9.487,5.7-13.864l3.216-5.669a7.3,7.3,0,0,1,1.731-2.285C136.084,409.725,145.469,412.484,149.521,415.743Z" transform="translate(-113.334 -193.301)" opacity="0.04"/>
    <path id="Path_523" data-name="Path 523" d="M393.375,434.377c-3.132,1.479-6.727,1.623-10,2.759s-6.048,3.18-9.048,4.846c-7.816,4.365-16.834,6.012-25.689,7.581-5.369.962-10.822,1.924-16.232,1.7-7.323-.313-14.357-2.754-21.451-4.593s-14.663-3.078-21.691-1.01a24.415,24.415,0,0,0-15.932,15.289,35.214,35.214,0,0,0-1.395,13.539c1.479,1.088,3.547-.421,4.353-2.074s1.244-3.679,2.808-4.641c2.711.92,3.373,4.533,5.609,6.319a10.128,10.128,0,0,0,5.032,1.665l9.138,1.3c2.2.313,4.755.523,6.349-1.028.776-.751,1.2-1.8,1.912-2.609,1.455-1.611,3.884-1.888,6.048-1.671,6.758.673,13.094,5.056,19.8,4.016a37.545,37.545,0,0,0,6.655-2.116c13.04-4.605,27.529-1.8,41.1-4.443a91.73,91.73,0,0,0,15.084-4.659,30.5,30.5,0,0,0,7.665-3.8,16.136,16.136,0,0,0,6.228-14.315,16.364,16.364,0,0,0-5.777-10.605c-1.058-.9-2.447-2.627-3.715-3.192C397.806,431.563,395.431,433.409,393.375,434.377Z" transform="translate(-173.665 -201.547)" fill="#a1616a"/>
    <g id="Group_18" data-name="Group 18" transform="translate(129.563 91.313)" opacity="0.1">
      <path id="Path_524" data-name="Path 524" d="M396.635,265.073c-1-.89-1.251-2.243-2.116-3.228-1.8-2.086-5.447-1.8-8.417-1.383-5.176.727-11.423.9-14.633-2.705-1.389-1.551-2-3.607-3.7-4.9-3.956-3.006-10.761.072-15.12-2.471-3.806-2.218-3.559-7.365-6.733-10.22s-8.675-2.483-12.986-1.058a3.758,3.758,0,0,1-2.333.264c-1.365-.481-1.269-2.176-.932-3.427,1.641-6.042,3.313-12.144,6.505-17.7a37.193,37.193,0,0,0,3.277-6.156c1.3-3.812.637-8.122,2.351-11.729a16.19,16.19,0,0,0-4.744,4.208c-2.561,3.818-1.569,8.675-3.006,12.914a37.183,37.183,0,0,1-3.276,6.156c-3.192,5.555-4.864,11.657-6.505,17.7-.337,1.25-.433,2.946.932,3.427a3.757,3.757,0,0,0,2.333-.265c4.311-1.425,9.788-1.834,12.986,1.058s2.928,8.02,6.733,10.22c4.359,2.543,11.164-.529,15.12,2.471,1.7,1.287,2.309,3.349,3.7,4.9,3.234,3.607,9.457,3.433,14.633,2.705,2.97-.421,6.613-.7,8.417,1.383.866.986,1.112,2.339,2.116,3.228,1.8,1.611,5.1.794,6.866-.86a18.232,18.232,0,0,0,2.874-3.932A4.472,4.472,0,0,1,396.635,265.073Z" transform="translate(-324.055 -200.36)"/>
      <path id="Path_525" data-name="Path 525" d="M462.286,293.379a17.1,17.1,0,0,0-1.076,1.557c2.309-1.647,4.755-3.186,6.481-5.285a12.752,12.752,0,0,0,1.2-1.731C466.495,289.639,463.994,291.221,462.286,293.379Z" transform="translate(-378.752 -235.279)"/>
    </g>
    <path id="Path_526" data-name="Path 526" d="M556.48,446.53l1.8,172.545,8.417-1.2L564.9,446.53Z" transform="translate(-221.922 -178.067)" fill="#3f3d56"/>
    <path id="Path_527" data-name="Path 527" d="M640.48,498.53l1.8,172.545,8.417-1.2L648.9,498.53Z" transform="translate(-255.421 -198.804)" fill="#3f3d56"/>
    <path id="Path_528" data-name="Path 528" d="M1004.355,634.174h0l-.036-3.313V628.89L1004,598.541l-.5-47.447-.084-4.094H995l.042,3.944.265,25.413.114,11h0l.1,8.91.156,15.4.1,9.084h0v.962l.126,11.94L996,644.184l.685-.758q1.653-1.846,3.234-3.751Z" transform="translate(-462.064 -247.286)" fill="#3f3d56"/>
    <path id="Path_529" data-name="Path 529" d="M621.79,545.03l-4.81,7.19,4.81,32.759,40.882,11.188H728.8l39.679,2.4,18.9-12.938-3.271-22.22L769.685,545.03Z" transform="translate(-246.05 -217.348)" fill="#19bd97"/>
    <path id="Path_530" data-name="Path 530" d="M723.6,605.48l-2.4,19.972s-12.625,39.156,88.978,36.758,84.168-10.389,84.168-10.389l-.6-23.17s3.541,10.966-48.1,9.481-99.8-6.283-99.8-6.283S727.811,635.041,723.6,605.48Z" transform="translate(-352.673 -270.608)" fill="#3f3d56"/>
    <path id="Path_531" data-name="Path 531" d="M850.191,305.949c-5.8,2.639-10.184,7.756-13.124,13.413s-4.593,11.868-6.223,18.036a160.573,160.573,0,0,0-4.335,19.7c-1.587,11.856-.4,24.319,5.05,34.966s15.511,19.238,27.295,21.289a50.232,50.232,0,0,0,13.828.162A112.423,112.423,0,0,0,897.1,408.13c8.266-2.8,16.87-7.1,20.549-15.03,2.134-4.6,2.315-9.842,2.212-14.9a158.542,158.542,0,0,0-6.2-40.756c-1.112-3.848-2.4-7.725-4.761-10.966s-5.579-5.615-8.868-7.816C885.968,309.19,867.487,298.086,850.191,305.949Z" transform="translate(-394.611 -150.091)" fill="#fbbebe"/>
    <path id="Path_532" data-name="Path 532" d="M850.191,305.949c-5.8,2.639-10.184,7.756-13.124,13.413s-4.593,11.868-6.223,18.036a160.573,160.573,0,0,0-4.335,19.7c-1.587,11.856-.4,24.319,5.05,34.966s15.511,19.238,27.295,21.289a50.232,50.232,0,0,0,13.828.162A112.423,112.423,0,0,0,897.1,408.13c8.266-2.8,16.87-7.1,20.549-15.03,2.134-4.6,2.315-9.842,2.212-14.9a158.542,158.542,0,0,0-6.2-40.756c-1.112-3.848-2.4-7.725-4.761-10.966s-5.579-5.615-8.868-7.816C885.968,309.19,867.487,298.086,850.191,305.949Z" transform="translate(-394.611 -150.091)" opacity="0.05"/>
    <path id="Path_533" data-name="Path 533" d="M820.39,399.244a27.291,27.291,0,0,0,6.012,6.012c5.724,3.956,13.07,4.491,20.02,4.707,5.579.168,11.976-.15,15.475-4.5a18.024,18.024,0,0,0,2.922-6.9,305.88,305.88,0,0,0,8.357-45.553l15.92.054c6.89,29.5,6.325,60.168,5.723,90.463l-.872,44.176-10.256-1.088c-24.355-2.579-48.746-5.158-73.232-5.6a418.924,418.924,0,0,0-43,1.419l22.335-66.409c2.9-8.633,5.826-17.381,6.5-26.453.98-13.16-2.711-27.054,2.4-39.228a4.771,4.771,0,0,1,1.858-2.507,5.275,5.275,0,0,1,3.18-.246c2.02.271,8.194,0,9.661,1.293,2.164,1.876.733,2.158-.03,5.182-1.365,5.411-2.657,10.419-2.639,16.058C810.752,380.36,813.927,391.17,820.39,399.244Z" transform="translate(-371.321 -167.712)" fill="#19bd97"/>
    <path id="Path_534" data-name="Path 534" d="M984.338,538.366h0q4.022-5.339,7.581-11.056c-1.2-2.573-2.525-5.086-3.577-7.714a77.523,77.523,0,0,1-3.451-12.535q-.469-2.164-.932-4.329c-3.367-15.7-6.529-31.617-7.184-47.531q-.09-1.984-.114-3.968v-4.942c.072-3.607.3-7.244.715-10.864.078-.709.168-1.419.265-2.128a3.043,3.043,0,0,1,.06-.463l40.882-1.491h0l3.439-.126c2.363-.084,4.864-.216,6.812-1.557,3.276-2.248,3.661-6.86,3.607-10.822a160.613,160.613,0,0,0-3.391-29.789c-1.551-7.371-3.764-14.9-8.73-20.567-4.076-4.653-9.98-8.038-12.1-13.828-.787-2.152-.986-4.515-2.008-6.571a20.468,20.468,0,0,0-4.3-5.152,71.74,71.74,0,0,1-13.767-19.07c-2.435-4.906-5.074-10.317-8.255-13.707-.156-.174-.313-.337-.475-.493-2.705-2.675-5.8-3.848-9.469-2.026a12.121,12.121,0,0,0-1.876,1.166h0a22.841,22.841,0,0,0-3.565,3.391,81.154,81.154,0,0,0-9.7,13.828,76.831,76.831,0,0,0-4.954,10.822,74.626,74.626,0,0,0-2.675,9.018c-.517,2.267-.926,4.557-1.25,6.854-1.2,8.633-1.2,17.435-1.034,26.176.18,8.032.535,16.082,1.263,24.084q.271,2.9.6,5.8.661,5.729,1.635,11.423c.259,1.449.523,2.9.818,4.341.072.385.15.77.228,1.148l.036.162a97.683,97.683,0,0,1,1.846,10.166q.072.643.108,1.281a49.5,49.5,0,0,1-.048,5.9c-.138,2.321-.355,4.635-.463,6.956a11.318,11.318,0,0,1-.042,1.2c-.03,1.172,0,2.345,0,3.517a55.732,55.732,0,0,0,1,8.351,54.014,54.014,0,0,0,5.2,14.693c.228.433.463.86.7,1.281,3.048,5.447,6.9,10.443,9.716,16.016a69.147,69.147,0,0,1,5.411,15.757q.6,2.7,1.142,5.411c.559,2.886,1.058,5.8,1.569,8.705.048.289.1.6.156.866.679,3.86,1.395,7.7,2.315,11.471.535,2.194,1.136,4.359,1.84,6.487Z" transform="translate(-442.047 -151.478)" fill="#464353"/>
    <path id="Path_535" data-name="Path 535" d="M923.262,593.725c0,.541-.036,1.082-.06,1.629a77.061,77.061,0,0,1-.727,7.882,51.291,51.291,0,0,1-2.6,10.455,35.249,35.249,0,0,1-3.1,6.379,29.406,29.406,0,0,1-3.86,4.972c-3.607,3.751-8.8,4.948-13.828,6.529a34.034,34.034,0,0,0-6.667,2.724c-.379.21-.751.439-1.112.679l-6.289,4.166a18.811,18.811,0,0,0-5.309,4.551,9.828,9.828,0,0,0-.6,1.016,23.042,23.042,0,0,0-1.852,5.555c-3.271,13.623-6.547,27.259-8.79,41.086-.15.914-.294,1.834-.451,2.753l-.054.289a1.494,1.494,0,0,0-.1-.2,361.823,361.823,0,0,1-49.96,25.533l-3.734-31.263a37.827,37.827,0,0,1-.385-7.683c.355-4.046,2-7.882,2.447-11.916a20.3,20.3,0,0,0-2.146-11.465,12.537,12.537,0,0,1-1.761-4.25,2.644,2.644,0,0,1,2.26-3.09,5.554,5.554,0,0,0,.944-4.96,14.423,14.423,0,0,0-.842-2.748c-1.022-2.513-2.315-5.248-1.437-7.816a2.922,2.922,0,0,0,.3-1.5.25.25,0,0,0,0-.1c-.2-.673-1-.968-1.419-1.539-.782-1.064,0-2.513.481-3.739a14.276,14.276,0,0,0,.806-4.094c.066-.776.114-1.557.2-2.327a23.436,23.436,0,0,1,.559-3.09,24.391,24.391,0,0,1,9.878-14.14c2.339-1.575,4.942-2.724,7.329-4.208a67.145,67.145,0,0,0,6.986-5.411q7.942-6.613,16.515-12.469a208.587,208.587,0,0,1,19.07-11.579q2.1-1.136,4.208-2.212,2.29-1.2,4.611-2.279c4.954-2.363,10.575-1.479,16.052.1,2.3.655,4.563,1.437,6.752,2.146a31.252,31.252,0,0,1,6.132,2.754c4.852,2.849,8.862,7.058,10.527,12.373a.634.634,0,0,1,0,.1A31.485,31.485,0,0,1,923.262,593.725Z" transform="translate(-389.003 -254.224)" fill="#f86d70"/>
    <path id="Path_536" data-name="Path 536" d="M923.262,593.725c0,.541-.036,1.082-.06,1.629a77.061,77.061,0,0,1-.727,7.882,51.291,51.291,0,0,1-2.6,10.455,35.249,35.249,0,0,1-3.1,6.379,29.406,29.406,0,0,1-3.86,4.972c-3.607,3.751-8.8,4.948-13.828,6.529a34.034,34.034,0,0,0-6.667,2.724c-.379.21-.751.439-1.112.679l-6.289,4.166a18.811,18.811,0,0,0-5.309,4.551,9.828,9.828,0,0,0-.6,1.016,23.042,23.042,0,0,0-1.852,5.555c-3.271,13.623-6.547,27.259-8.79,41.086-.15.914-.294,1.834-.451,2.753l-.054.289a1.494,1.494,0,0,0-.1-.2,361.823,361.823,0,0,1-49.96,25.533l-3.734-31.263a37.827,37.827,0,0,1-.385-7.683c.355-4.046,2-7.882,2.447-11.916a20.3,20.3,0,0,0-2.146-11.465,12.537,12.537,0,0,1-1.761-4.25,2.644,2.644,0,0,1,2.26-3.09,5.554,5.554,0,0,0,.944-4.96,14.423,14.423,0,0,0-.842-2.748c-1.022-2.513-2.315-5.248-1.437-7.816a2.922,2.922,0,0,0,.3-1.5.25.25,0,0,0,0-.1c-.2-.673-1-.968-1.419-1.539-.782-1.064,0-2.513.481-3.739a14.276,14.276,0,0,0,.806-4.094c.066-.776.114-1.557.2-2.327a23.436,23.436,0,0,1,.559-3.09,24.391,24.391,0,0,1,9.878-14.14c2.339-1.575,4.942-2.724,7.329-4.208a67.145,67.145,0,0,0,6.986-5.411q7.942-6.613,16.515-12.469a208.587,208.587,0,0,1,19.07-11.579q2.1-1.136,4.208-2.212,2.29-1.2,4.611-2.279c4.954-2.363,10.575-1.479,16.052.1,2.3.655,4.563,1.437,6.752,2.146a31.252,31.252,0,0,1,6.132,2.754c4.852,2.849,8.862,7.058,10.527,12.373a.634.634,0,0,1,0,.1A31.485,31.485,0,0,1,923.262,593.725Z" transform="translate(-389.003 -254.224)" opacity="0.1"/>
    <path id="Path_537" data-name="Path 537" d="M900.5,447.09a1.13,1.13,0,1,0-2.032.986l-.6.295L915.8,485.116l3.24-1.581-17.928-36.77Z" transform="translate(-423.329 -207.171)" fill="#3f3d56"/>
    <circle id="Ellipse_64" data-name="Ellipse 64" cx="38.477" cy="38.477" r="38.477" transform="translate(461.111 124.476)" fill="#fbbebe"/>
    <path id="Path_538" data-name="Path 538" d="M965.385,233.269a51.09,51.09,0,0,0-1.359-9.072c-2.261-9.721-6.391-19.293-13.5-26.273a52.625,52.625,0,0,0-1.569-5.044.94.94,0,0,0-.042-.12,56.456,56.456,0,0,0-9.078-16.094c-2.255-2.8-5.176-5.567-8.772-5.675a7.111,7.111,0,0,1-3.006-.325,5.412,5.412,0,0,1-1.677-1.719,15.745,15.745,0,0,0-15.246-5.705l-.373.078c-.21.042-.421.09-.6.144s-.5.144-.758.222q.415.685.812,1.389,1.07,1.906,1.984,3.9.758,1.659,1.4,3.373c-6.156.7-11.17,5.074-15.751,9.234l-10.786,9.788a.452.452,0,0,0-.054.054l-.312.3c-.078.078-.156.156-.229.24a.515.515,0,0,0-.078.084c-.09.1-.174.2-.259.3a4.538,4.538,0,0,0-.4.6,2.206,2.206,0,0,0-.156.283.6.6,0,0,0-.042.09,2.2,2.2,0,0,0-.1.252.085.085,0,0,0,0,.036,1.4,1.4,0,0,0-.042.15,1.8,1.8,0,0,0,.1,1.275l7.112.078h.836c.036.95.066,1.906.1,2.856a40.511,40.511,0,0,0-3.247,2.705,35.251,35.251,0,0,0-3.168,3.343,46.136,46.136,0,0,0-10.1,27.836v3.679c0,.6.054,1.2.1,1.8a4.5,4.5,0,0,0,.6,2.23,2.041,2.041,0,0,0,.168.216,4.147,4.147,0,0,0,1.274.938l.517.253h0c.259.126.505.247.746.385,2.266,1.281,3.607,3.752,5.669,5.339.12.09.241.18.361.259l.271.18.168.108.229.132a4.911,4.911,0,0,0,.463.246h0l.288.144h.048c.24.108.481.21.728.3l.343.12.1.036c.1.03.2.066.3.09q.307.09.6.162l.6.132c.234.042.475.084.715.114l.355.048.361.036q.86.078,1.731.09h0a43.3,43.3,0,0,0,5.453-.379l15.343-1.8c3.481-.4,7.034-.806,10.467-.1,2.91.6,5.591,1.984,8.417,2.964.637.222,1.274.427,1.918.6.235.066.475.138.715.2l.331.084.77.186c.277.066.553.132.83.186.391.084.776.156,1.166.228.265.054.535.1.806.144h.054l.769.12h.186l.571.078c.277.042.553.078.836.108q.92.114,1.84.2c.992.1,1.99.168,3.006.228l1,.06,1,.048,3.006.132h.553a15.511,15.511,0,0,0,3.74-.192c.216-.042.427-.09.637-.15s.385-.12.6-.192a10.292,10.292,0,0,0,5.044-4.984c.241-.451.463-.9.667-1.365s.391-.932.559-1.4c.21-.6.391-1.172.547-1.774.048-.162.09-.325.126-.493s.12-.5.168-.752c.15-.691.265-1.389.349-2.092a6.416,6.416,0,0,1,.078-.673c.054-.6.1-1.16.12-1.749v-1.347C965.427,234.532,965.385,233.888,965.385,233.269ZM949.97,197.377c-.487-.457-.986-.9-1.491-1.311a6.21,6.21,0,0,1,1.485,1.311Z" transform="translate(-415.014 -94.136)" fill="#464353"/>
    <path id="Path_539" data-name="Path 539" d="M771.1,310.955c-4.527-.559-9.018-2.543-13.485-1.569-2.8.6-5.2,2.339-7.437,4.124a90.428,90.428,0,0,0-20.9,23.9,12.626,12.626,0,0,0-1.93,4.521,11.985,11.985,0,0,0,.83,5.579c4.112,12.15,12.908,22.3,16.912,34.485,4.208,12.818,2.747,26.826-.355,39.956a166.98,166.98,0,0,1-18.541,46.112,26.294,26.294,0,0,1-4.269,5.844c-2.188,2.1-5.128,3.607-6.427,6.361a28.457,28.457,0,0,0-1.2,3.86c-1.2,3.607-4.112,6.7-4.395,10.5-.21,2.9,1.166,5.651,2,8.417a23.2,23.2,0,0,1-.427,14.489c-3.048,8.357-11.02,15.956-8.705,24.547,5.164-1.485,10.888-3.415,13.323-8.206.86-1.7,1.287-3.715,2.735-4.954,2.892-2.459,7.816-.235,10.888-2.5,2.321-1.719,2.4-5.242,1.371-7.948s-2.814-5.086-3.607-7.87c-1.383-5.02.83-10.329.421-15.517-.192-2.4-.932-4.708-.986-7.1-.1-4.647,2.471-9.018,5.892-12.174s7.647-5.248,11.808-7.311l15.727-7.816c5.705-2.826,11.958-6.271,13.828-12.355a25.024,25.024,0,0,0,.751-7.088c.535-36.379,9.649-72.024,18.71-107.26a132.874,132.874,0,0,1,4.93-16.184c2.092-5.242,6.186-9.451,8.273-14.321C794.724,302.063,783.668,312.53,771.1,310.955Z" transform="translate(-345.355 -150.119)" fill="#464353"/>
    <path id="Path_540" data-name="Path 540" d="M876.348,635.13c1.389,8.417,2.236,17.014,2.9,25.569a292.5,292.5,0,0,1-34.311,24.012c-.673.415-1.353.824-2.032,1.2l-.054.288a1.493,1.493,0,0,0-.1-.2,9.048,9.048,0,0,0-4.521-4.461q-6.656-13.978-13.3-27.956c-2.4-5.032-4.81-10.112-6.012-15.541a2.379,2.379,0,0,0-.072-.349c-.914-4.208-1.124-8.579-1.731-12.842a37.1,37.1,0,0,0-1.641-7.178c-.721-2.074-1.713-4.088-2.591-6.114a20.365,20.365,0,0,1-2.032-7.732,5.053,5.053,0,0,0-.367-2.525,6.551,6.551,0,0,0-1.641-1.587,6.258,6.258,0,0,1-2.02-5.717c-3.607.186-5.639,4.064-7.088,7.353a40.084,40.084,0,0,1-5.146,9.018,17.106,17.106,0,0,1-5.7,4.743c-.2.1-.4.192-.6.277-5.02,2.212-10.882,1.431-16.323.433-4.755-.872-9.673-1.954-13.5-4.912l-.409-.325a17.66,17.66,0,0,1-3.006-3.21c-3.2-4.377-4.623-10.142-5.411-15.631-.072-.517-.144-1.034-.21-1.551a57.816,57.816,0,0,1-.451-11.711c.072-.962.174-1.924.3-2.88.084-.6.174-1.251.276-1.876a.171.171,0,0,1,0-.054c.156-.992.325-1.99.493-3.006.6-3.409,1.2-6.908,3.006-9.842a18.638,18.638,0,0,1,4.425-4.737c.649-.511,1.317-1,1.99-1.467,1.094-.758,2.219-1.479,3.361-2.158a58.1,58.1,0,0,1,9.018-4.389c.746-.289,1.5-.559,2.26-.818a17.742,17.742,0,0,1,9.186-.727,48.339,48.339,0,0,0,8.224.481c7.052-.138,14.134-1.485,21.174-2.357,9.776-1.2,20.279-1.347,28.8,3.607.409.234.806.481,1.2.739a35.628,35.628,0,0,1,10.335,10.924c.6.908,1.124,1.84,1.641,2.784a70.909,70.909,0,0,1,3.228,6.673,8.3,8.3,0,0,1,.9,3.607,4.7,4.7,0,0,1-.1.709c-.162.854-.487,1.683-.6,2.549-.379,3.277,2.4,6.012,3.445,9.132.673,2.032.6,4.208.98,6.349.547,3.006,2.02,5.711,3.343,8.417a105.257,105.257,0,0,1,5.351,13.449c1.046,3.2,1.942,6.457,2.729,9.739q.385,1.581.728,3.168C875.338,629.413,875.873,632.262,876.348,635.13Z" transform="translate(-363.907 -246.071)" fill="#f86d70"/>
    <path id="Path_541" data-name="Path 541" d="M797.467,477.1V481.3l-.776-.012-.866-.012-9.667-.12-23.82-.313-6.685-.084-1.731-.024-10.034-.126-14.14-.186-30-.391-52.058-.673-18.788-.24-7.539-.1-6.938-.09-4.323-.06-4.094-.054-30.355-.391-8.417-.108L565.4,478.3l-1.19-3.072-8.651-22.311-1.581-4.076,1.2-4.81,5.411,3.607,3.331.415,54.836,6.818,10.293,1.281,21.824,2.717,21.379,2.657,8.381,1.04,49.593,6.168,13.858,1.725,11.471,1.425,40.785,5.074Z" transform="translate(-220.925 -177.07)" fill="#3f3d56"/>
    <path id="Path_542" data-name="Path 542" d="M555.98,444.03,566.8,472.286l231.463,4.81V446.435Z" transform="translate(-221.723 -177.07)" fill="#504f60"/>
    <path id="Path_543" data-name="Path 543" d="M575.98,496.03l1.8,172.545,8.417-1.2L584.4,496.03Z" transform="translate(-229.699 -197.807)" fill="#3f3d56"/>
    <path id="Path_544" data-name="Path 544" d="M1059.177,552.707h-.866a190.265,190.265,0,0,1-6.932,31.737l-2.736-31.864-.114-1.359,10.112-1.166.337-.036Z" transform="translate(-483.411 -248.49)" fill="#3f3d56"/>
    <path id="Path_545" data-name="Path 545" d="M826.411,464.453l-88.076,1.8-27.355-9.018,73.347-4.208Z" transform="translate(-283.537 -180.659)" fill="#fff"/>
    <path id="Path_546" data-name="Path 546" d="M824.494,459.768a5.9,5.9,0,0,0-2.4,1.713,6.348,6.348,0,0,0-.9,2.729l-1.479,8.82a3.9,3.9,0,0,0,.114,2.447c.385.739,1.5,1.124,2.062.511a7.921,7.921,0,0,0,1.082,4.972c1,1.407,3.108,2.146,4.527,1.166a2.934,2.934,0,0,0,4.419.685c-.854.289-.914,1.593-.307,2.254a3.926,3.926,0,0,0,2.453.98,59.994,59.994,0,0,0,31.2-3.926c.932-.385-1.521-11.874-1.768-13.052-.6-2.771-.9-6.156-3.241-8.02-5.591-4.461-15.523-5.339-22.335-4.81A38.477,38.477,0,0,0,824.494,459.768Z" transform="translate(-392.103 -211.036)" fill="#fbbebe"/>
    <path id="Path_547" data-name="Path 547" d="M933.642,458.686c-21.746.415-43.942.77-64.7-5.741a43.887,43.887,0,0,1-.4,23.369l101.676,8.417c4.311.355,22.184,2.375,26.387,1.359s-35.26-14.014-33.667-18.036c4.383-11.08,19.064-17.573,8.489-17.988C958.087,449.536,947.091,458.434,933.642,458.686Z" transform="translate(-411.636 -208.619)" opacity="0.1"/>
    <path id="Path_548" data-name="Path 548" d="M934.642,460.686c-21.746.415-43.942.77-64.7-5.742a43.888,43.888,0,0,1-.4,23.369l101.675,8.417c4.311.355,22.184,2.4,26.387,1.359s3.216-6.2,4.81-10.22c4.383-11.08-19.413-25.389-29.988-25.8C959.087,451.536,948.091,460.434,934.642,460.686Z" transform="translate(-412.035 -209.417)" fill="#464353"/>
    <path id="Path_549" data-name="Path 549" d="M893.128,466.768a5.886,5.886,0,0,1,2.4,1.713,6.439,6.439,0,0,1,.9,2.729l1.479,8.82a3.946,3.946,0,0,1-.114,2.447c-.385.74-1.509,1.124-2.062.511a7.958,7.958,0,0,1-1.082,4.972c-1,1.407-3.108,2.146-4.533,1.166a2.934,2.934,0,0,1-4.419.685c.854.289.92,1.593.313,2.254a3.944,3.944,0,0,1-2.459.98,59.97,59.97,0,0,1-31.2-3.926c-.932-.385,1.515-11.874,1.768-13.052.6-2.772.9-6.156,3.241-8.02,5.585-4.461,15.523-5.339,22.335-4.81A38.477,38.477,0,0,1,893.128,466.768Z" transform="translate(-405.095 -213.828)" fill="#fbbebe"/>
    <path id="Path_550" data-name="Path 550" d="M676.489,405.54a38.485,38.485,0,0,0-5.284,8.2c-2.459,5.723-2.1,12.2-1.689,18.421a10.746,10.746,0,0,0,1.2,5.14,8.683,8.683,0,0,0,3.138,2.675c5.206,2.958,11.3,3.842,17.254,4.5q13.671,1.515,27.439,1.846c22.738.553,45.824-1.3,67.972,3.848-2.741-4.166-2.735-9.679-1.2-14.429s4.485-8.886,7.377-12.956c-10.136-3.21-21.006,1.8-31.623,1.3-10.9-.511-20.988-6.812-31.9-6.806-2.345,0-4.731.295-7.01-.271s-4.485-2.285-4.7-4.623c2.91.655,5.669-1.834,6.872-4.563s1.419-5.814,2.585-8.561c2.9-6.836,10.75-10,15.631-15.631a3.83,3.83,0,0,0,.271-5.808c-4.058-5.411-10.172-8.417-15.252-12.625-1.768-1.467-5.333-7-7.317-7.509-3.679-.944-6.8,4.371-9.192,6.962Q692.944,384.348,676.489,405.54Z" transform="translate(-332.144 -171.748)" fill="#464353"/>
    <path id="Path_551" data-name="Path 551" d="M882.39,434.81a19.9,19.9,0,0,1,4.022,3.986,6.866,6.866,0,0,1,1.256,5.375,8.032,8.032,0,0,1,5.008-8.315Z" transform="translate(-417.155 -202.545)" opacity="0.07"/>
    <g id="Group_19" data-name="Group 19" transform="translate(461.92 69.105)" opacity="0.1">
      <path id="Path_552" data-name="Path 552" d="M935.066,168.921a52.237,52.237,0,0,0-2.441-5.5,14.754,14.754,0,0,0-1.756.451,50.858,50.858,0,0,1,2.784,5.309A10.081,10.081,0,0,1,935.066,168.921Z" transform="translate(-898.409 -163.42)"/>
      <path id="Path_553" data-name="Path 553" d="M995.87,212c.162.132.319.283.475.421a.891.891,0,0,0-.042-.114Q996.1,212.156,995.87,212Z" transform="translate(-924.331 -182.794)"/>
      <path id="Path_554" data-name="Path 554" d="M898.076,213.967c.313-.246.6-.5.938-.745l-.1-2.856L892.5,210.3c-1.04.956-2.146,2.327-1.533,3.607Z" transform="translate(-882.424 -182.116)"/>
      <path id="Path_555" data-name="Path 555" d="M962.724,288.855a10.267,10.267,0,0,1-5.044,4.984,13.675,13.675,0,0,1-5.507.517c-6.337-.258-12.782-.541-18.77-2.639-2.8-.986-5.483-2.363-8.417-2.97-3.433-.709-6.986-.307-10.467.1l-15.343,1.8c-4.527.529-9.571.926-13.184-1.852-2.068-1.587-3.4-4.058-5.67-5.333-.956-.541-2.092-.89-2.711-1.8a4.5,4.5,0,0,1-.6-2.23c-.048-.631-.078-1.263-.1-1.894a50.865,50.865,0,0,0,.1,5.5,4.5,4.5,0,0,0,.6,2.23c.6.908,1.756,1.257,2.711,1.8,2.267,1.275,3.607,3.745,5.67,5.333,3.607,2.778,8.657,2.4,13.184,1.852l15.343-1.8c3.481-.409,7.034-.812,10.467-.1,2.91.6,5.591,1.984,8.417,2.97,6.012,2.1,12.433,2.4,18.77,2.639a13.781,13.781,0,0,0,5.507-.517,10.267,10.267,0,0,0,5.044-4.984,25.519,25.519,0,0,0,2.6-13.5,23.486,23.486,0,0,1-2.6,9.89Z" transform="translate(-876.877 -208.931)"/>
    </g>
    <path id="Path_556" data-name="Path 556" d="M937.56,179l8.417,7.816S938.762,183.81,937.56,179Z" transform="translate(-439.157 -100.528)" opacity="0.1"/>
  </g>
</svg>
